<svg width="176" height="52" viewBox="0 0 176 52" fill="none" xmlns="http://www.w3.org/2000/svg">
<path fill-rule="evenodd" clip-rule="evenodd" d="M0 14.995V15.1256L29.6337 29.0594L59.3735 15.0789V15.0438L29.6337 1.06116L0 14.995ZM10.684 15.0608L29.6337 6.14973L48.5877 15.0608L29.6337 23.9709L10.683 15.0608H10.684ZM29.6337 34.4717L0 20.7469V25.8238L29.6337 39.5815L59.3735 25.776V20.6991L29.6337 34.4717ZM29.6337 44.7687L0 31.0407V36.1166L29.6337 49.8775L59.3735 36.071V30.9941L29.6337 44.7687Z" fill="white"/>
<mask id="mask0" mask-type="alpha" maskUnits="userSpaceOnUse" x="76" y="0" width="100" height="52">
<path d="M76.3523 0.0317383H175.973V51.2783H76.3534L76.3523 0.0317383Z" fill="white"/>
</mask>
<g mask="url(#mask0)">
<path fill-rule="evenodd" clip-rule="evenodd" d="M169.172 25.6307C169.19 23.439 168.37 21.3234 166.881 19.7165C166.181 18.9649 165.337 18.3613 164.4 17.941C163.45 17.5145 162.419 17.297 161.378 17.3033C160.307 17.3033 159.299 17.5155 158.354 17.941C157.417 18.3612 156.574 18.9649 155.873 19.7165C154.385 21.324 153.566 23.4399 153.583 25.6317C153.566 27.8232 154.385 29.9387 155.873 31.5459C156.574 32.2971 157.417 32.9004 158.354 33.3203C159.305 33.7473 160.336 33.9652 161.377 33.9592C162.448 33.9592 163.455 33.7469 164.401 33.3203C165.338 32.9003 166.181 32.297 166.881 31.5459C168.37 29.9386 169.189 27.8226 169.171 25.6307H169.172ZM175.974 25.6307C175.974 27.681 175.595 29.5816 174.839 31.3326C174.113 33.0397 173.053 34.584 171.722 35.8747C170.4 37.1535 168.849 38.1627 167.07 38.9034C165.291 39.6452 163.393 40.0156 161.377 40.0156C159.363 40.0156 157.472 39.6452 155.709 38.9034C153.987 38.1891 152.416 37.1533 151.08 35.8513C149.752 34.5492 148.692 32.9979 147.963 31.2859C147.207 29.5349 146.829 27.6502 146.829 25.6307C146.829 23.643 147.214 21.7742 147.986 20.0232C148.733 18.308 149.799 16.7504 151.127 15.4334C152.458 14.1189 154.03 13.0746 155.757 12.3579C157.537 11.6133 159.448 11.2351 161.377 11.2458C163.393 11.2458 165.289 11.6172 167.07 12.3579C168.849 13.0987 170.399 14.109 171.722 15.3867C173.045 16.6644 174.084 18.1862 174.839 19.9521C175.595 21.719 175.974 23.6122 175.974 25.6307ZM144.466 39.1645C143.884 39.4331 143.274 39.6394 142.648 39.78C141.972 39.937 141.27 40.0156 140.547 40.0156C139.564 40.0191 138.586 39.8837 137.642 39.6134C136.745 39.363 135.915 38.9188 135.208 38.3123C134.516 37.7127 133.965 36.9327 133.554 35.9702C133.146 35.0077 132.942 33.8477 132.942 32.4926V0.0307617H139.885V31.3093C139.885 32.4448 140.113 33.2259 140.57 33.6514C141.026 34.077 141.57 34.2903 142.2 34.2903C142.986 34.2903 143.742 34.0536 144.466 33.5803V39.1645ZM129.871 11.9069L117.589 44.4165C116.676 46.8456 115.479 48.5966 113.999 49.6695C112.519 50.7414 110.755 51.2773 108.709 51.2773C108.394 51.2773 108.048 51.2539 107.67 51.2072C107.303 51.162 106.94 51.0907 106.583 50.9939L104.316 44.6531C104.847 44.9037 105.401 45.1017 105.97 45.2442C106.536 45.3864 107.072 45.4575 107.575 45.4575C108.646 45.4575 109.622 45.2135 110.504 44.7242C111.386 44.2361 112.062 43.3287 112.535 42.0033L113.48 39.2589L102.946 11.908H110.363L116.645 29.5116L122.55 11.908H129.871V11.9069ZM101.293 7.7915H83.5322V16.5933H101.057V22.5553H83.5311V39.3056H76.3533V1.49844H101.294V7.7915H101.293Z" fill="white"/>
</g>
</svg>
