<svg width="173" height="32" viewBox="0 0 173 32" fill="none" xmlns="http://www.w3.org/2000/svg">
<path d="M90.477 0.984002C91.297 0.984002 92.1307 0.915669 92.978 0.779002C93.8253 0.615001 94.577 0.396334 95.233 0.123001C95.2057 1.87233 94.7547 3.18434 93.88 4.059C93.0327 4.90634 91.7753 5.33 90.108 5.33C89.3153 5.33 88.427 5.26167 87.443 5.125C86.4863 4.98834 85.2563 4.756 83.753 4.428L78.095 30.75H72.191L78.013 3.608H77.521C74.8697 3.608 72.9153 4.29133 71.658 5.658C70.428 6.99734 69.813 9.07467 69.813 11.89C69.813 12.4093 69.8403 12.8603 69.895 13.243C69.977 13.6257 70.1 13.9947 70.264 14.35C70.3187 14.4593 70.346 14.5413 70.346 14.596C70.3733 14.6233 70.387 14.6507 70.387 14.678C68.8563 14.678 67.7357 14.3637 67.025 13.735C66.3417 13.079 66 12.0677 66 10.701C66 7.44834 67.2163 4.86534 69.649 2.952C72.109 1.01134 75.553 0.0410019 79.981 0.0410019C80.883 0.0410019 81.744 0.0820014 82.564 0.164C83.4113 0.218668 84.491 0.341668 85.803 0.533001C86.951 0.724335 87.8393 0.847335 88.468 0.902001C89.124 0.956668 89.7937 0.984002 90.477 0.984002Z" fill="#00ADB5" fill-opacity="0.15"/>
<path d="M91.7253 7.339C91.7253 5.23434 92.6273 3.485 94.4313 2.091C96.2626 0.697 98.5176 0 101.196 0C103.274 0 104.886 0.423667 106.034 1.271C107.21 2.11834 107.797 3.33467 107.797 4.92C107.797 6.15 107.483 7.14767 106.854 7.913C106.253 8.67834 105.447 9.061 104.435 9.061C104.053 9.061 103.697 8.99267 103.369 8.856C103.069 8.71934 102.795 8.50067 102.549 8.2C103.096 7.872 103.533 7.38 103.861 6.724C104.217 6.068 104.394 5.38467 104.394 4.674C104.394 3.79933 104.135 3.12967 103.615 2.665C103.096 2.173 102.344 1.927 101.36 1.927C100.185 1.927 99.2556 2.255 98.5723 2.911C97.9163 3.567 97.5883 4.48267 97.5883 5.658C97.5883 6.61467 97.8343 7.53034 98.3263 8.405C98.8183 9.25234 99.8843 10.4003 101.524 11.849C103.684 13.735 105.105 15.375 105.788 16.769C106.472 18.1357 106.813 19.6663 106.813 21.361C106.813 24.477 105.734 26.9643 103.574 28.823C101.415 30.6817 98.6543 31.611 95.2923 31.611C92.6136 31.611 90.4953 30.996 88.9373 29.766C87.3793 28.536 86.6003 26.8003 86.6003 24.559C86.6003 22.591 87.1879 20.9783 88.3633 19.721C89.5386 18.4637 90.9599 17.835 92.6273 17.835C93.6659 17.835 94.5133 18.081 95.1693 18.573C95.8253 19.0377 96.1806 19.6937 96.2353 20.541C94.8139 20.541 93.6523 20.8827 92.7503 21.566C91.8756 22.2493 91.4383 23.1923 91.4383 24.395C91.4383 25.543 91.7936 26.486 92.5043 27.224C93.2149 27.962 94.1716 28.331 95.3743 28.331C96.7956 28.331 97.9436 27.839 98.8183 26.855C99.6929 25.871 100.13 24.5453 100.13 22.878C100.13 21.5933 99.8433 20.3633 99.2693 19.188C98.6953 18.0127 97.5063 16.441 95.7023 14.473C94.0623 12.7237 92.9826 11.357 92.4633 10.373C91.9713 9.36167 91.7253 8.35034 91.7253 7.339Z" fill="#00ADB5" fill-opacity="0.15"/>
<path d="M10.5231 15.1385L3.28205 19.5795L10.5231 24.0615L9.6 25.3231L1.80513 20.4513V18.6872L9.69231 13.8154L10.5231 15.1385ZM22.9406 25.4564C22.5782 25.6957 22.1303 25.8838 21.597 26.0205C21.0705 26.1641 20.5543 26.2359 20.0483 26.2359C19.2893 26.2359 18.6363 26.0991 18.0893 25.8256C17.5491 25.5453 17.1355 25.159 16.8483 24.6667C16.5611 24.1744 16.4175 23.6103 16.4175 22.9744V16.5333H13.9355V15.2H16.4175V12.7487L18.1406 12.5436V15.2H21.8739L21.6688 16.5333H18.1406V22.9538C18.1406 23.5692 18.3013 24.0308 18.6226 24.3385C18.9508 24.6462 19.4773 24.8 20.2021 24.8C20.9337 24.8 21.6243 24.6291 22.2739 24.2872L22.9406 25.4564ZM30.3427 24.8103C31.1701 24.8103 31.823 24.6564 32.3017 24.3487C32.7872 24.041 33.0299 23.6239 33.0299 23.0974C33.0299 22.7419 32.9649 22.4513 32.835 22.2256C32.7119 21.9932 32.4624 21.7812 32.0863 21.5897C31.7171 21.3983 31.1598 21.2103 30.4145 21.0256C29.5872 20.8205 28.9102 20.5983 28.3837 20.359C27.8641 20.1128 27.4572 19.7949 27.1632 19.4051C26.876 19.0154 26.7325 18.5197 26.7325 17.9179C26.7325 17.3231 26.9034 16.8034 27.2453 16.359C27.5872 15.9145 28.0658 15.5726 28.6812 15.3333C29.3034 15.094 30.0213 14.9744 30.835 14.9744C31.6487 14.9744 32.3803 15.0838 33.0299 15.3026C33.6863 15.5145 34.2607 15.8017 34.753 16.1641L33.994 17.3333C33.5427 17.0256 33.0675 16.7897 32.5683 16.6256C32.076 16.4547 31.5051 16.3692 30.8555 16.3692C30.0419 16.3692 29.447 16.4957 29.0709 16.7487C28.7017 16.9949 28.5171 17.3402 28.5171 17.7846C28.5171 18.106 28.6025 18.3692 28.7735 18.5744C28.9513 18.7795 29.235 18.9641 29.6248 19.1282C30.0213 19.2855 30.6094 19.4701 31.3889 19.6821C32.1683 19.894 32.8077 20.1299 33.3068 20.3897C33.806 20.6496 34.1957 20.9915 34.476 21.4154C34.7564 21.8325 34.8966 22.3658 34.8966 23.0154C34.8966 23.747 34.6846 24.3556 34.2607 24.841C33.8367 25.3197 33.2795 25.6718 32.5889 25.8974C31.9051 26.1231 31.1564 26.2359 30.3427 26.2359C28.647 26.2359 27.2384 25.7504 26.1171 24.7795L27.1017 23.641C27.5393 24.0103 28.035 24.2974 28.5889 24.5026C29.1427 24.7077 29.7273 24.8103 30.3427 24.8103ZM40.6987 22.8513C40.6987 23.5556 40.8423 24.0684 41.1294 24.3897C41.4235 24.7043 41.885 24.8615 42.5141 24.8615C43.0816 24.8615 43.632 24.6974 44.1653 24.3692C44.7055 24.041 45.1294 23.6342 45.4371 23.1487V15.2H47.1602V26H45.6935L45.55 24.5436C45.1329 25.0769 44.6132 25.494 43.991 25.7949C43.3756 26.0889 42.7431 26.2359 42.0935 26.2359C41.0611 26.2359 40.2816 25.9624 39.7551 25.4154C39.2354 24.8615 38.9756 24.0752 38.9756 23.0564V15.2H40.6987V22.8513ZM59.4649 10.8513V26H57.9572L57.7931 24.5744C57.3965 25.135 56.9384 25.5521 56.4187 25.8256C55.8991 26.0991 55.335 26.2359 54.7264 26.2359C53.3589 26.2359 52.3299 25.7333 51.6393 24.7282C50.9555 23.7231 50.6136 22.3521 50.6136 20.6154C50.6136 19.5282 50.7811 18.5573 51.1162 17.7026C51.4581 16.8479 51.947 16.1812 52.5829 15.7026C53.2256 15.2171 53.9811 14.9744 54.8495 14.9744C55.4649 14.9744 56.0085 15.0803 56.4803 15.2923C56.9589 15.5043 57.3794 15.8222 57.7418 16.2462V10.6359L59.4649 10.8513ZM55.3008 16.359C54.3914 16.359 53.694 16.7179 53.2085 17.4359C52.7299 18.147 52.4905 19.2068 52.4905 20.6154C52.4905 22.0103 52.7093 23.0632 53.147 23.7744C53.5914 24.4855 54.2376 24.841 55.0854 24.841C56.1042 24.841 56.9897 24.2735 57.7418 23.1385V17.7436C57.4478 17.306 57.0888 16.9675 56.6649 16.7282C56.2478 16.4821 55.7931 16.359 55.3008 16.359ZM71.3183 23.641C71.3183 24.065 71.3867 24.3795 71.5234 24.5846C71.6602 24.7829 71.8858 24.9299 72.2004 25.0256L71.7798 26.2359C70.7405 26.0991 70.0807 25.5932 69.8004 24.7179C69.4175 25.2171 68.932 25.5966 68.3439 25.8564C67.7628 26.1094 67.12 26.2359 66.4157 26.2359C65.7046 26.2359 65.0858 26.0991 64.5593 25.8256C64.0328 25.5521 63.6294 25.1658 63.3491 24.6667C63.0687 24.1607 62.9286 23.5726 62.9286 22.9026C62.9286 21.788 63.3628 20.9333 64.2311 20.3385C65.0995 19.7436 66.3542 19.4462 67.9952 19.4462H69.585V18.5436C69.585 17.7915 69.3662 17.2479 68.9286 16.9128C68.491 16.5709 67.8516 16.4 67.0106 16.4C66.1969 16.4 65.2602 16.5846 64.2004 16.9538L63.7491 15.6513C64.9525 15.2 66.1286 14.9744 67.2773 14.9744C68.5969 14.9744 69.5987 15.2855 70.2824 15.9077C70.973 16.5231 71.3183 17.3744 71.3183 18.4615V23.641ZM66.8568 24.9231C67.3901 24.9231 67.8961 24.7897 68.3747 24.5231C68.8602 24.2496 69.2636 23.8735 69.585 23.3949V20.6154H68.026C66.8841 20.6154 66.0568 20.8103 65.544 21.2C65.0311 21.5897 64.7747 22.1504 64.7747 22.8821C64.7747 24.2427 65.4687 24.9231 66.8568 24.9231ZM78.1666 24.4205C78.1666 24.0923 78.2452 23.7915 78.4025 23.5179C78.5597 23.2444 78.7751 23.0291 79.0486 22.8718C79.3221 22.7077 79.6264 22.6256 79.9615 22.6256C80.3033 22.6256 80.611 22.7077 80.8845 22.8718C81.1649 23.0291 81.3837 23.2444 81.5409 23.5179C81.6982 23.7915 81.7768 24.0923 81.7768 24.4205C81.7768 24.7556 81.6982 25.0632 81.5409 25.3436C81.3837 25.6171 81.1649 25.8359 80.8845 26C80.611 26.1573 80.3033 26.2359 79.9615 26.2359C79.6264 26.2359 79.3221 26.1573 79.0486 26C78.7751 25.8359 78.5597 25.6171 78.4025 25.3436C78.2452 25.0632 78.1666 24.7556 78.1666 24.4205ZM91.8661 24.8103C92.6935 24.8103 93.3465 24.6564 93.8251 24.3487C94.3106 24.041 94.5533 23.6239 94.5533 23.0974C94.5533 22.7419 94.4884 22.4513 94.3585 22.2256C94.2354 21.9932 93.9858 21.7812 93.6097 21.5897C93.2405 21.3983 92.6832 21.2103 91.9379 21.0256C91.1106 20.8205 90.4337 20.5983 89.9072 20.359C89.3875 20.1128 88.9807 19.7949 88.6867 19.4051C88.3995 19.0154 88.2559 18.5197 88.2559 17.9179C88.2559 17.3231 88.4268 16.8034 88.7687 16.359C89.1106 15.9145 89.5892 15.5726 90.2046 15.3333C90.8268 15.094 91.5448 14.9744 92.3585 14.9744C93.1721 14.9744 93.9038 15.0838 94.5533 15.3026C95.2097 15.5145 95.7841 15.8017 96.2764 16.1641L95.5174 17.3333C95.0661 17.0256 94.5909 16.7897 94.0918 16.6256C93.5995 16.4547 93.0285 16.3692 92.379 16.3692C91.5653 16.3692 90.9704 16.4957 90.5944 16.7487C90.2251 16.9949 90.0405 17.3402 90.0405 17.7846C90.0405 18.106 90.126 18.3692 90.2969 18.5744C90.4747 18.7795 90.7585 18.9641 91.1482 19.1282C91.5448 19.2855 92.1328 19.4701 92.9123 19.6821C93.6918 19.894 94.3311 20.1299 94.8302 20.3897C95.3294 20.6496 95.7191 20.9915 95.9995 21.4154C96.2798 21.8325 96.42 22.3658 96.42 23.0154C96.42 23.747 96.208 24.3556 95.7841 24.841C95.3602 25.3197 94.8029 25.6718 94.1123 25.8974C93.4285 26.1231 92.6798 26.2359 91.8661 26.2359C90.1704 26.2359 88.7619 25.7504 87.6405 24.7795L88.6251 23.641C89.0627 24.0103 89.5585 24.2974 90.1123 24.5026C90.6661 24.7077 91.2508 24.8103 91.8661 24.8103ZM105.33 14.9744C106.711 14.9744 107.706 15.4632 108.314 16.441C108.93 17.4188 109.237 18.8034 109.237 20.5949C109.237 21.7094 109.084 22.6906 108.776 23.5385C108.468 24.3795 108 25.0393 107.371 25.5179C106.749 25.9966 105.983 26.2359 105.073 26.2359C103.884 26.2359 102.933 25.8188 102.222 24.9846V30.1333L100.499 30.3487V15.2H101.966L102.109 16.7077C102.506 16.147 102.978 15.7197 103.525 15.4256C104.079 15.1248 104.68 14.9744 105.33 14.9744ZM104.92 16.359C104.366 16.359 103.86 16.5231 103.402 16.8513C102.95 17.1795 102.557 17.5932 102.222 18.0923V23.4462C102.509 23.8701 102.865 24.2017 103.289 24.441C103.72 24.6803 104.188 24.8 104.694 24.8C105.596 24.8 106.27 24.4547 106.714 23.7641C107.166 23.0735 107.391 22.0137 107.391 20.5846C107.391 19.1624 107.19 18.1026 106.786 17.4051C106.383 16.7077 105.761 16.359 104.92 16.359ZM120.537 23.641C120.537 24.065 120.605 24.3795 120.742 24.5846C120.879 24.7829 121.105 24.9299 121.419 25.0256L120.999 26.2359C119.959 26.0991 119.299 25.5932 119.019 24.7179C118.636 25.2171 118.151 25.5966 117.563 25.8564C116.982 26.1094 116.339 26.2359 115.634 26.2359C114.923 26.2359 114.305 26.0991 113.778 25.8256C113.252 25.5521 112.848 25.1658 112.568 24.6667C112.287 24.1607 112.147 23.5726 112.147 22.9026C112.147 21.788 112.582 20.9333 113.45 20.3385C114.318 19.7436 115.573 19.4462 117.214 19.4462H118.804V18.5436C118.804 17.7915 118.585 17.2479 118.147 16.9128C117.71 16.5709 117.07 16.4 116.229 16.4C115.416 16.4 114.479 16.5846 113.419 16.9538L112.968 15.6513C114.171 15.2 115.347 14.9744 116.496 14.9744C117.816 14.9744 118.817 15.2855 119.501 15.9077C120.192 16.5231 120.537 17.3744 120.537 18.4615V23.641ZM116.076 24.9231C116.609 24.9231 117.115 24.7897 117.593 24.5231C118.079 24.2496 118.482 23.8735 118.804 23.3949V20.6154H117.245C116.103 20.6154 115.276 20.8103 114.763 21.2C114.25 21.5897 113.993 22.1504 113.993 22.8821C113.993 24.2427 114.687 24.9231 116.076 24.9231ZM129.99 24.7487C130.955 24.7487 131.891 24.4342 132.801 23.8051L133.642 24.9333C133.17 25.3299 132.602 25.6479 131.939 25.8872C131.276 26.1197 130.626 26.2359 129.99 26.2359C128.931 26.2359 128.018 26.0068 127.252 25.5487C126.493 25.0906 125.915 24.441 125.519 23.6C125.122 22.759 124.924 21.7744 124.924 20.6462C124.924 19.559 125.126 18.588 125.529 17.7333C125.932 16.8718 126.517 16.1983 127.283 15.7128C128.049 15.2205 128.958 14.9744 130.011 14.9744C131.385 14.9744 132.589 15.3915 133.621 16.2256L132.78 17.3744C131.85 16.7316 130.92 16.4103 129.99 16.4103C129.355 16.4103 128.797 16.5675 128.319 16.8821C127.84 17.1966 127.464 17.6718 127.19 18.3077C126.924 18.9436 126.79 19.7231 126.79 20.6462C126.79 22.0274 127.078 23.0564 127.652 23.7333C128.233 24.4103 129.013 24.7487 129.99 24.7487ZM138.767 21.2103C138.794 22.0171 138.952 22.6906 139.239 23.2308C139.526 23.7641 139.902 24.1607 140.367 24.4205C140.832 24.6735 141.352 24.8 141.926 24.8C142.459 24.8 142.948 24.7214 143.393 24.5641C143.844 24.4068 144.316 24.1607 144.808 23.8256L145.618 24.9641C145.112 25.3607 144.531 25.6718 143.875 25.8974C143.225 26.1231 142.569 26.2359 141.905 26.2359C140.873 26.2359 139.984 26.0034 139.239 25.5385C138.493 25.0735 137.926 24.4171 137.536 23.5692C137.153 22.7214 136.962 21.7368 136.962 20.6154C136.962 19.5282 137.157 18.5573 137.546 17.7026C137.936 16.8479 138.487 16.1812 139.198 15.7026C139.909 15.2171 140.736 14.9744 141.68 14.9744C142.582 14.9744 143.362 15.1863 144.018 15.6103C144.681 16.0342 145.187 16.6462 145.536 17.4462C145.892 18.2393 146.07 19.1795 146.07 20.2667C146.07 20.5812 146.056 20.8957 146.028 21.2103H138.767ZM141.7 16.3897C140.866 16.3897 140.186 16.6838 139.659 17.2718C139.14 17.853 138.846 18.7214 138.777 19.8769H144.408C144.387 18.7419 144.138 17.8769 143.659 17.2821C143.181 16.6872 142.528 16.3897 141.7 16.3897ZM170.484 18.6872V20.4513L162.699 25.3231L161.766 24.0513L169.007 19.5795L159.243 13.5487L152.176 28.1128L150.781 27.4974L159.561 9.39487L160.935 10.0718L159.92 12.1538L170.484 18.6872Z" fill="#222831"/>
</svg>
